# xmcd CD database file
#
# Track frame offsets:
#	150
#	16690
#	64456
#	82586
#	121926
#	153267
#	163525
#	180289
#	198075
#	239490
#	260242
#	264820
#	307040
#
# Disc length: 4552 seconds
#
# Revision: 0
# Processed by: cddbd v1.5.2PL0 Copyright (c) Steve Scherf et al.
# Submitted via: CDex 1.51
#
DISCID=9a11c60d
DTITLE=David Binney - Cities And Desire
DYEAR=2006
DGENRE=Jazz
TTITLE0=Lisbon
TTITLE1=London
TTITLE2=Intro To Toronto
TTITLE3=Toronto
TTITLE4=Los Angeles
TTITLE5=Intro To Carpinteria
TTITLE6=Carpinteria
TTITLE7=Intro To Rome
TTITLE8=Rome
TTITLE9=Montreal
TTITLE10=Intro To Miami
TTITLE11=Miami
TTITLE12=New York City
EXTD=YEAR: 2006
EXTT0=
EXTT1=
EXTT2=
EXTT3=
EXTT4=
EXTT5=
EXTT6=
EXTT7=
EXTT8=
EXTT9=
EXTT10=
EXTT11=
EXTT12=
PLAYORDER=
